<svg xmlns="http://www.w3.org/2000/svg" xmlns:xlink="http://www.w3.org/1999/xlink" width="400" zoomAndPan="magnify" viewBox="0 0 300 149.999998" height="200" preserveAspectRatio="xMidYMid meet" version="1.0"><defs><g/><clipPath id="1baeb478d2"><path d="M 184 118.199219 L 207.097656 118.199219 L 207.097656 141.40625 L 184 141.40625 Z M 184 118.199219 " clip-rule="nonzero"/></clipPath><clipPath id="3fc728a616"><path d="M 183.96875 138 L 191 138 L 191 142.941406 L 183.96875 142.941406 Z M 183.96875 138 " clip-rule="nonzero"/></clipPath><clipPath id="e4d735c4ba"><path d="M 129.328125 31.117188 L 152.429688 31.117188 L 152.429688 54.328125 L 129.328125 54.328125 Z M 129.328125 31.117188 " clip-rule="nonzero"/></clipPath><clipPath id="9af0d9c0be"><path d="M 129.300781 51 L 136 51 L 136 55.863281 L 129.300781 55.863281 Z M 129.300781 51 " clip-rule="nonzero"/></clipPath></defs><g fill="#2b2b2b" fill-opacity="1"><g transform="translate(44.995262, 115.75665)"><g><path d="M 30.082031 0 C 26.25 -4.214844 22.609375 -10.632812 20.503906 -17.53125 L 34.777344 -17.53125 C 37.941406 -8.144531 45.605469 0.671875 56.144531 0.671875 C 61.03125 0.671875 67.160156 -1.148438 70.992188 -6.515625 L 69.367188 -8.238281 C 66.300781 -4.980469 61.414062 -5.367188 59.019531 -10.828125 C 55.1875 -19.738281 53.171875 -31.136719 49.054688 -43.402344 C 45.507812 -54.132812 35.640625 -65.4375 16.289062 -65.4375 L 16.289062 -62.945312 C 20.597656 -62.945312 22.324219 -58.828125 24.8125 -50.777344 C 22.324219 -47.710938 19.640625 -44.261719 17.53125 -41.007812 C 11.113281 -31.234375 1.722656 -13.796875 1.722656 0 Z M 34.011719 -19.832031 L 19.929688 -19.832031 C 17.820312 -27.976562 17.917969 -36.695312 22.226562 -43.210938 C 23.378906 -44.933594 24.527344 -46.46875 25.675781 -48.097656 C 28.457031 -39.089844 31.136719 -28.648438 34.011719 -19.832031 Z M 34.011719 -19.832031 "/></g></g></g><g fill="#2b2b2b" fill-opacity="1"><g transform="translate(109.46901, 115.75665)"><g><path d="M 24.527344 -31.328125 C 42.347656 -31.328125 25.582031 -14.660156 35.640625 -4.597656 C 45.699219 5.460938 59.6875 -1.820312 66.109375 -10.25 L 64.574219 -11.785156 C 61.605469 -8.71875 58.347656 -7.570312 54.992188 -10.921875 C 51.640625 -14.277344 52.695312 -22.132812 45.988281 -28.839844 C 43.6875 -31.042969 41.484375 -32.382812 39.1875 -33.054688 C 49.339844 -35.351562 55.953125 -40.429688 55.953125 -48.382812 C 55.953125 -59.59375 42.730469 -65.628906 24.8125 -65.628906 C 15.328125 -65.628906 2.203125 -61.316406 2.203125 -44.839844 L 2.203125 0 L 23.1875 0 L 23.1875 -36.214844 C 23.1875 -48.574219 11.59375 -48 9.292969 -53.652344 C 8.335938 -56.046875 9.007812 -59.976562 15.425781 -59.976562 C 20.40625 -59.976562 26.828125 -57.292969 31.234375 -51.738281 C 40.144531 -40.71875 34.492188 -33.53125 24.527344 -33.53125 Z M 24.527344 -31.328125 "/></g></g></g><g fill="#2b2b2b" fill-opacity="1"><g transform="translate(167.140919, 115.75665)"><g><path d="M 8.046875 -38.898438 L 9.773438 -40.527344 C 7.28125 -42.347656 7.570312 -48.097656 12.261719 -48.097656 C 14.371094 -48.097656 17.339844 -46.5625 21.078125 -44.933594 L 21.078125 0 L 42.058594 0 L 42.058594 -29.03125 C 42.058594 -39.570312 28.550781 -32.191406 24.527344 -43.496094 C 28.457031 -41.964844 33.054688 -40.71875 38.417969 -40.71875 C 47.902344 -40.71875 61.316406 -47.234375 61.316406 -64.863281 L 58.921875 -64.863281 C 58.921875 -60.261719 55.761719 -55.378906 49.148438 -55.378906 C 42.539062 -55.378906 33.148438 -65.53125 18.875 -65.53125 C 4.597656 -65.53125 1.722656 -55.089844 1.722656 -50.109375 C 1.722656 -45.222656 4.503906 -41.867188 8.046875 -38.898438 Z M 8.046875 -38.898438 "/></g></g></g><g fill="#2b2b2b" fill-opacity="1"><g transform="translate(230.177648, 115.75665)"><g><path d="M 41.484375 -34.96875 L 29.03125 -34.96875 C 7.664062 -34.96875 4.3125 -53.269531 10.828125 -57.199219 C 20.597656 -63.136719 22.417969 -41.292969 36.597656 -41.292969 C 50.875 -41.292969 53.84375 -54.515625 52.40625 -65.054688 L 50.300781 -65.054688 C 50.300781 -60.839844 49.246094 -58.15625 44.550781 -58.15625 C 39.761719 -58.15625 33.148438 -65.53125 23.664062 -65.53125 C -3.351562 -65.53125 0.480469 -38.800781 21.269531 -33.339844 C 9.964844 -31.328125 1.722656 -26.441406 1.722656 -17.148438 C 1.722656 -6.707031 12.648438 0.671875 30.660156 0.671875 C 43.59375 0.671875 50.585938 -3.640625 56.335938 -10.058594 L 55.28125 -11.210938 C 46.945312 -2.394531 31.328125 1.054688 23.761719 -13.890625 C 17.917969 -25.292969 21.078125 -32.480469 31.042969 -32.480469 L 39.855469 -32.480469 Z M 41.484375 -34.96875 "/></g></g></g><g clip-path="url(#1baeb478d2)"><path fill="#2b2b2b" d="M 206.746094 129.140625 L 198.699219 127.285156 C 198.445312 127.226562 198.25 127.027344 198.191406 126.773438 L 196.332031 118.726562 C 196.171875 118.023438 195.171875 118.023438 195.007812 118.726562 L 193.152344 126.773438 C 193.09375 127.027344 192.894531 127.226562 192.640625 127.285156 L 184.59375 129.140625 C 183.890625 129.300781 183.890625 130.300781 184.59375 130.464844 L 192.640625 132.320312 C 192.894531 132.378906 193.09375 132.578125 193.152344 132.832031 L 195.007812 140.878906 C 195.171875 141.582031 196.171875 141.582031 196.332031 140.878906 L 198.191406 132.832031 C 198.25 132.578125 198.445312 132.378906 198.699219 132.320312 L 206.746094 130.464844 C 207.449219 130.300781 207.449219 129.300781 206.746094 129.140625 " fill-opacity="1" fill-rule="nonzero"/></g><g clip-path="url(#3fc728a616)"><path fill="#2b2b2b" d="M 190.144531 146.582031 L 183.964844 145.15625 C 183.773438 145.109375 183.621094 144.957031 183.574219 144.765625 L 182.148438 138.585938 C 182.023438 138.046875 181.257812 138.046875 181.132812 138.585938 L 179.707031 144.765625 C 179.660156 144.957031 179.511719 145.109375 179.316406 145.15625 L 173.136719 146.582031 C 172.597656 146.707031 172.597656 147.472656 173.136719 147.597656 L 179.316406 149.023438 C 179.511719 149.066406 179.660156 149.21875 179.707031 149.414062 L 181.132812 155.59375 C 181.257812 156.132812 182.023438 156.132812 182.148438 155.59375 L 183.574219 149.414062 C 183.621094 149.21875 183.773438 149.066406 183.964844 149.023438 L 190.144531 147.597656 C 190.683594 147.472656 190.683594 146.707031 190.144531 146.582031 " fill-opacity="1" fill-rule="nonzero"/></g><g clip-path="url(#e4d735c4ba)"><path fill="#2b2b2b" d="M 152.082031 42.058594 L 144.03125 40.203125 C 143.777344 40.144531 143.582031 39.945312 143.523438 39.695312 L 141.664062 31.644531 C 141.503906 30.945312 140.503906 30.945312 140.34375 31.644531 L 138.484375 39.695312 C 138.425781 39.945312 138.226562 40.144531 137.976562 40.203125 L 129.925781 42.058594 C 129.226562 42.222656 129.226562 43.222656 129.925781 43.382812 L 137.976562 45.242188 C 138.226562 45.300781 138.425781 45.496094 138.484375 45.75 L 140.34375 53.796875 C 140.503906 54.5 141.503906 54.5 141.664062 53.796875 L 143.523438 45.75 C 143.582031 45.496094 143.777344 45.300781 144.03125 45.242188 L 152.082031 43.382812 C 152.78125 43.222656 152.78125 42.222656 152.082031 42.058594 " fill-opacity="1" fill-rule="nonzero"/></g><g clip-path="url(#9af0d9c0be)"><path fill="#2b2b2b" d="M 135.476562 59.5 L 129.300781 58.074219 C 129.105469 58.03125 128.953125 57.878906 128.90625 57.683594 L 127.480469 51.503906 C 127.359375 50.964844 126.589844 50.964844 126.464844 51.503906 L 125.039062 57.683594 C 124.996094 57.878906 124.84375 58.03125 124.648438 58.074219 L 118.46875 59.5 C 117.929688 59.625 117.929688 60.390625 118.46875 60.515625 L 124.648438 61.941406 C 124.84375 61.988281 124.996094 62.140625 125.039062 62.332031 L 126.464844 68.511719 C 126.589844 69.050781 127.359375 69.050781 127.480469 68.511719 L 128.90625 62.332031 C 128.953125 62.140625 129.105469 61.988281 129.300781 61.941406 L 135.476562 60.515625 C 136.015625 60.390625 136.015625 59.625 135.476562 59.5 " fill-opacity="1" fill-rule="nonzero"/></g><g fill="#2b2b2b" fill-opacity="1"><g transform="translate(34.65763, 80.172886)"><g><path d="M -15.6875 -4.90625 L -15.4375 -6.609375 L 0.625 -4.3125 L 0.375 -2.609375 Z M -15.6875 -4.90625 "/></g></g></g><g fill="#2b2b2b" fill-opacity="1"><g transform="translate(36.326824, 67.825707)"><g><path d="M -5.21875 -22.328125 L 8.5625 -13.75 L 7.828125 -12.5625 L -8.890625 -10.671875 L 2.296875 -3.703125 L 1.390625 -2.234375 L -12.390625 -10.8125 L -11.640625 -12.03125 L 5.078125 -13.953125 L -6.109375 -20.90625 Z M -5.21875 -22.328125 "/></g></g></g><g fill="#2b2b2b" fill-opacity="1"><g transform="translate(49.998058, 48.745738)"><g><path d="M 6.171875 -22.046875 L 7.8125 -4.375 L 6.328125 -3.53125 L -7.875 -14.203125 L -6.25 -15.109375 L 6.0625 -5.84375 L 4.65625 -21.203125 Z M 6.171875 -22.046875 "/></g></g></g><g fill="#2b2b2b" fill-opacity="1"><g transform="translate(69.61, 39.98848)"><g><path d="M 0.65625 -16.421875 L 2.359375 -16.640625 L 4.328125 -0.53125 L 2.625 -0.3125 Z M 0.65625 -16.421875 "/></g></g></g><g fill="#2b2b2b" fill-opacity="1"><g transform="translate(82.249688, 38.911658)"><g><path d="M 9.125 -12.953125 L 3.59375 -14.3125 L 3.9375 -15.75 L 16.6875 -12.625 L 16.34375 -11.1875 L 10.796875 -12.546875 L 7.296875 1.78125 L 5.625 1.375 Z M 9.125 -12.953125 "/></g></g></g></svg>