<svg xmlns="http://www.w3.org/2000/svg" xmlns:xlink="http://www.w3.org/1999/xlink" width="500" zoomAndPan="magnify" viewBox="0 0 375 374.999991" height="500" preserveAspectRatio="xMidYMid meet" version="1.0"><defs><g/><clipPath id="f992029a28"><path d="M 236.765625 238.609375 L 264.296875 238.609375 L 264.296875 266.058594 L 236.765625 266.058594 Z M 236.765625 238.609375 " clip-rule="nonzero"/></clipPath><clipPath id="11e13c0e5b"><path d="M 236.730469 262 L 245 262 L 245 267.847656 L 236.730469 267.847656 Z M 236.730469 262 " clip-rule="nonzero"/></clipPath><clipPath id="a622a05bf0"><path d="M 172.097656 135.597656 L 199.628906 135.597656 L 199.628906 163.046875 L 172.097656 163.046875 Z M 172.097656 135.597656 " clip-rule="nonzero"/></clipPath><clipPath id="59db514af4"><path d="M 172.0625 159 L 180 159 L 180 164.832031 L 172.0625 164.832031 Z M 172.0625 159 " clip-rule="nonzero"/></clipPath></defs><g fill="#a38f8b" fill-opacity="1"><g transform="translate(72.333588, 235.713573)"><g><path d="M 35.589844 0 C 31.054688 -4.988281 26.746094 -12.582031 24.253906 -20.742188 L 41.140625 -20.742188 C 44.882812 -9.632812 53.949219 0.792969 66.414062 0.792969 C 72.195312 0.792969 79.449219 -1.359375 83.984375 -7.707031 L 82.054688 -9.746094 C 78.429688 -5.894531 72.648438 -6.347656 69.816406 -12.808594 C 65.28125 -23.347656 62.902344 -36.835938 58.027344 -51.34375 C 53.835938 -64.035156 42.160156 -77.410156 19.265625 -77.410156 L 19.265625 -74.460938 C 24.367188 -74.460938 26.40625 -69.589844 29.355469 -60.070312 C 26.40625 -56.441406 23.234375 -52.363281 20.742188 -48.507812 C 13.148438 -36.949219 2.039062 -16.320312 2.039062 0 Z M 40.234375 -23.460938 L 23.574219 -23.460938 C 21.082031 -33.09375 21.195312 -43.410156 26.292969 -51.117188 C 27.65625 -53.15625 29.015625 -54.96875 30.375 -56.894531 C 33.660156 -46.242188 36.835938 -33.886719 40.234375 -23.460938 Z M 40.234375 -23.460938 "/></g></g></g><g fill="#a38f8b" fill-opacity="1"><g transform="translate(148.603597, 235.713573)"><g><path d="M 29.015625 -37.0625 C 50.09375 -37.0625 30.261719 -17.339844 42.160156 -5.441406 C 54.0625 6.460938 70.609375 -2.152344 78.203125 -12.128906 L 76.390625 -13.941406 C 72.875 -10.3125 69.023438 -8.953125 65.054688 -12.921875 C 61.089844 -16.886719 62.335938 -26.179688 54.402344 -34.113281 C 51.683594 -36.722656 49.074219 -38.308594 46.355469 -39.101562 C 58.367188 -41.820312 66.1875 -47.828125 66.1875 -57.234375 C 66.1875 -70.496094 50.546875 -77.636719 29.355469 -77.636719 C 18.132812 -77.636719 2.605469 -72.535156 2.605469 -53.042969 L 2.605469 0 L 27.425781 0 L 27.425781 -42.839844 C 27.425781 -57.460938 13.714844 -56.78125 10.992188 -63.46875 C 9.859375 -66.300781 10.652344 -70.949219 18.246094 -70.949219 C 24.140625 -70.949219 31.734375 -67.777344 36.949219 -61.203125 C 47.488281 -48.167969 40.800781 -39.667969 29.015625 -39.667969 Z M 29.015625 -37.0625 "/></g></g></g><g fill="#a38f8b" fill-opacity="1"><g transform="translate(216.827287, 235.713573)"><g><path d="M 9.519531 -46.015625 L 11.558594 -47.941406 C 8.613281 -50.09375 8.953125 -56.894531 14.507812 -56.894531 C 17 -56.894531 20.515625 -55.082031 24.933594 -53.15625 L 24.933594 0 L 49.753906 0 L 49.753906 -34.339844 C 49.753906 -46.808594 33.773438 -38.082031 29.015625 -51.457031 C 33.660156 -49.640625 39.101562 -48.167969 45.449219 -48.167969 C 56.667969 -48.167969 72.535156 -55.875 72.535156 -76.730469 L 69.703125 -76.730469 C 69.703125 -71.289062 65.960938 -65.507812 58.140625 -65.507812 C 50.320312 -65.507812 39.214844 -77.523438 22.328125 -77.523438 C 5.441406 -77.523438 2.039062 -65.167969 2.039062 -59.277344 C 2.039062 -53.496094 5.328125 -49.527344 9.519531 -46.015625 Z M 9.519531 -46.015625 "/></g></g></g><g fill="#a38f8b" fill-opacity="1"><g transform="translate(291.397357, 235.713573)"><g><path d="M 49.074219 -41.367188 L 34.339844 -41.367188 C 9.066406 -41.367188 5.101562 -63.015625 12.808594 -67.664062 C 24.367188 -74.691406 26.519531 -48.847656 43.296875 -48.847656 C 60.183594 -48.847656 63.695312 -64.488281 61.996094 -76.957031 L 59.503906 -76.957031 C 59.503906 -71.96875 58.253906 -68.796875 52.703125 -68.796875 C 47.035156 -68.796875 39.214844 -77.523438 27.996094 -77.523438 C -3.96875 -77.523438 0.566406 -45.902344 25.160156 -39.441406 C 11.789062 -37.0625 2.039062 -31.28125 2.039062 -20.289062 C 2.039062 -7.933594 14.960938 0.792969 36.269531 0.792969 C 51.570312 0.792969 59.84375 -4.308594 66.640625 -11.902344 L 65.394531 -13.261719 C 55.535156 -2.832031 37.0625 1.246094 28.109375 -16.433594 C 21.195312 -29.921875 24.933594 -38.421875 36.722656 -38.421875 L 47.148438 -38.421875 Z M 49.074219 -41.367188 "/></g></g></g><g clip-path="url(#f992029a28)"><path fill="#a38f8b" d="M 263.675781 251.550781 L 254.15625 249.355469 C 253.855469 249.285156 253.625 249.050781 253.554688 248.75 L 251.355469 239.230469 C 251.164062 238.402344 249.984375 238.402344 249.792969 239.230469 L 247.59375 248.75 C 247.523438 249.050781 247.292969 249.285156 246.992188 249.355469 L 237.472656 251.550781 C 236.640625 251.742188 236.640625 252.925781 237.472656 253.117188 L 246.992188 255.3125 C 247.292969 255.382812 247.523438 255.617188 247.59375 255.914062 L 249.792969 265.433594 C 249.984375 266.265625 251.164062 266.265625 251.355469 265.433594 L 253.554688 255.914062 C 253.625 255.617188 253.855469 255.382812 254.15625 255.3125 L 263.675781 253.117188 C 264.503906 252.925781 264.503906 251.742188 263.675781 251.550781 " fill-opacity="1" fill-rule="nonzero"/></g><g clip-path="url(#11e13c0e5b)"><path fill="#a38f8b" d="M 244.039062 272.179688 L 236.730469 270.492188 C 236.5 270.4375 236.320312 270.261719 236.265625 270.03125 L 234.582031 262.722656 C 234.433594 262.082031 233.523438 262.082031 233.378906 262.722656 L 231.691406 270.03125 C 231.636719 270.261719 231.457031 270.4375 231.230469 270.492188 L 223.917969 272.179688 C 223.28125 272.328125 223.28125 273.234375 223.917969 273.382812 L 231.230469 275.066406 C 231.457031 275.121094 231.636719 275.300781 231.691406 275.53125 L 233.378906 282.839844 C 233.523438 283.476562 234.433594 283.476562 234.582031 282.839844 L 236.265625 275.53125 C 236.320312 275.300781 236.5 275.121094 236.730469 275.066406 L 244.039062 273.382812 C 244.675781 273.234375 244.675781 272.328125 244.039062 272.179688 " fill-opacity="1" fill-rule="nonzero"/></g><g clip-path="url(#a622a05bf0)"><path fill="#a38f8b" d="M 199.007812 148.539062 L 189.488281 146.339844 C 189.1875 146.273438 188.953125 146.039062 188.886719 145.738281 L 186.6875 136.21875 C 186.496094 135.390625 185.3125 135.390625 185.121094 136.21875 L 182.925781 145.738281 C 182.855469 146.039062 182.621094 146.273438 182.324219 146.339844 L 172.804688 148.539062 C 171.972656 148.730469 171.972656 149.910156 172.804688 150.105469 L 182.324219 152.300781 C 182.621094 152.371094 182.855469 152.601562 182.925781 152.902344 L 185.121094 162.421875 C 185.3125 163.253906 186.496094 163.253906 186.6875 162.421875 L 188.886719 152.902344 C 188.953125 152.601562 189.1875 152.371094 189.488281 152.300781 L 199.007812 150.105469 C 199.835938 149.910156 199.835938 148.730469 199.007812 148.539062 " fill-opacity="1" fill-rule="nonzero"/></g><g clip-path="url(#59db514af4)"><path fill="#a38f8b" d="M 179.367188 169.167969 L 172.058594 167.480469 C 171.832031 167.425781 171.652344 167.246094 171.597656 167.019531 L 169.910156 159.707031 C 169.765625 159.070312 168.855469 159.070312 168.707031 159.707031 L 167.023438 167.019531 C 166.96875 167.246094 166.789062 167.425781 166.558594 167.480469 L 159.25 169.167969 C 158.613281 169.3125 158.613281 170.222656 159.25 170.367188 L 166.558594 172.054688 C 166.789062 172.109375 166.96875 172.289062 167.023438 172.519531 L 168.707031 179.828125 C 168.855469 180.464844 169.765625 180.464844 169.910156 179.828125 L 171.597656 172.519531 C 171.652344 172.289062 171.832031 172.109375 172.058594 172.054688 L 179.367188 170.367188 C 180.007812 170.222656 180.007812 169.3125 179.367188 169.167969 " fill-opacity="1" fill-rule="nonzero"/></g><g fill="#a38f8b" fill-opacity="1"><g transform="translate(60.104008, 193.618845)"><g><path d="M -18.578125 -5.8125 L -18.28125 -7.828125 L 0.734375 -5.109375 L 0.4375 -3.09375 Z M -18.578125 -5.8125 "/></g></g></g><g fill="#a38f8b" fill-opacity="1"><g transform="translate(62.078604, 179.012596)"><g><path d="M -6.15625 -26.4375 L 10.140625 -16.28125 L 9.25 -14.859375 L -10.5 -12.609375 L 2.71875 -4.375 L 1.65625 -2.65625 L -14.640625 -12.8125 L -13.765625 -14.234375 L 6 -16.5 L -7.21875 -24.734375 Z M -6.15625 -26.4375 "/></g></g></g><g fill="#a38f8b" fill-opacity="1"><g transform="translate(78.251163, 156.441698)"><g><path d="M 7.28125 -26.078125 L 9.234375 -5.15625 L 7.484375 -4.1875 L -9.3125 -16.796875 L -7.390625 -17.875 L 7.171875 -6.90625 L 5.484375 -25.078125 Z M 7.28125 -26.078125 "/></g></g></g><g fill="#a38f8b" fill-opacity="1"><g transform="translate(101.451337, 146.08221)"><g><path d="M 0.78125 -19.4375 L 2.796875 -19.6875 L 5.125 -0.625 L 3.109375 -0.375 Z M 0.78125 -19.4375 "/></g></g></g><g fill="#a38f8b" fill-opacity="1"><g transform="translate(116.403613, 144.808368)"><g><path d="M 10.796875 -15.3125 L 4.25 -16.90625 L 4.65625 -18.625 L 19.71875 -14.953125 L 19.3125 -13.234375 L 12.78125 -14.828125 L 8.640625 2.109375 L 6.65625 1.625 Z M 10.796875 -15.3125 "/></g></g></g></svg>